<?xml version="1.0" encoding="utf-8"?>
<!-- Generator: Adobe Illustrator 27.5.0, SVG Export Plug-In . SVG Version: 6.00 Build 0)  -->
<svg version="1.1" id="_x31_" xmlns="http://www.w3.org/2000/svg" xmlns:xlink="http://www.w3.org/1999/xlink" x="0px" y="0px"
	 viewBox="0 0 1000 1000" style="enable-background:new 0 0 1000 1000;" xml:space="preserve">
<g>
	<path style="opacity:0.3;fill:#391100;" d="M822.102,563.834c3.821-2.646,6.686-6.639,8.094-12.7
		c0.357-1.547,0.575-3.063,0.716-4.563c1.609-0.039,3.043-0.034,3.043-0.034c0.738,0.046,3.069-2.011,4.337-1.743
		c0.916,0.184,2.777,1.555,3.832,1.874l0.038,0.094h0.965c0,0,0.005-0.034,0.006-0.082c0.929-0.096,1.769-0.226,2.565-0.393
		c1.55,0.138,3.5-0.069,5.419-0.693c-0.898,1.491-1.96,2.866-3.228,4.042c0,0,3.364-0.887,7.274-3.692
		c-0.777,1.643-1.747,3.181-2.948,4.534c0,0,5.61-2.12,10.329-8.027c-0.188,1.393-0.502,2.77-0.986,4.106
		c-0.473,1.306,3.671-5.342,5.303-12.282c1.444-3.026,2.435-7.342,2.576-13.773c0.239-10.622-6.539-17.167-12.849-17.253
		c-5.682-1.135-15.641,0.191-30.296,13.429l-0.11,0.041l-5.218,1.95c-0.655-0.819-1.309-1.631-2.017-2.392
		c-0.317-0.345-0.674-0.658-1.003-0.986c-0.767-0.764-1.511-1.527-2.318-2.215c-1.11-0.957-2.261-1.835-3.444-2.649
		c-0.274-0.188-0.556-0.348-0.838-0.53c-1.035-0.672-2.079-1.301-3.143-1.865c-0.328-0.173-0.66-0.326-0.988-0.487
		c-1.025-0.502-2.047-0.961-3.081-1.356c-0.363-0.145-0.724-0.271-1.093-0.396c-0.105-0.036-0.214-0.067-0.315-0.105
		c0,0.027,0.001,0.057,0.001,0.083c-1.359-0.495-2.656-0.862-3.838-1.067c-0.139-0.059-0.281-0.114-0.426-0.169
		c-0.071-0.023-0.14-0.058-0.213-0.082c-0.333-0.115-0.688-0.209-1.05-0.303c-0.122-0.03-0.239-0.064-0.364-0.095
		c-0.351-0.078-0.716-0.145-1.093-0.204c-0.156-0.027-0.308-0.05-0.468-0.071c-0.373-0.051-0.758-0.092-1.148-0.126
		c-0.18-0.014-0.361-0.027-0.547-0.039c-0.396-0.023-0.797-0.041-1.213-0.05c-0.198-0.004-0.402-0.005-0.606-0.005
		c-0.417-0.002-0.838,0.002-1.273,0.018c-0.215,0.007-0.435,0.019-0.656,0.03c-0.438,0.021-0.883,0.046-1.34,0.082
		c-0.22,0.017-0.447,0.04-0.673,0.06c-0.469,0.044-0.937,0.087-1.421,0.146c-0.205,0.024-0.414,0.056-0.622,0.082
		c-0.302,0.04-0.617,0.094-0.923,0.137l24.18-15.238h29.592l102.94-64.874l-95.973-54.853l-98.599,62.561l-148.773-84.499h-79.549
		v150.498h-85.789v49.929L374.12,510.6c-6.377-4.018-15.832-4.881-23.508-2.608c-0.178,0.051-0.358,0.099-0.533,0.155
		c-0.27,0.084-0.533,0.18-0.797,0.272c-0.296,0.105-0.59,0.212-0.879,0.326c-0.221,0.088-0.439,0.18-0.656,0.273
		c-0.339,0.146-0.671,0.301-0.998,0.462c-0.168,0.081-0.34,0.161-0.505,0.247c-0.49,0.257-0.97,0.523-1.429,0.814l-37.808,23.826
		L202.72,600.093c-4.093,2.578-6.089,5.973-6.015,9.362c-1.158,7.188-0.159,19.067,0.006,21.642c0.208,3.174,2.24,6.316,6.095,8.745
		l67.975,42.839l188.606,118.865c5.912,3.724,14.462,4.736,21.791,3.06c0.106-0.022,0.213-0.046,0.319-0.07
		c0.356-0.084,0.706-0.182,1.055-0.28c0.24-0.066,0.48-0.137,0.717-0.208c0.289-0.092,0.572-0.187,0.854-0.284
		c0.295-0.105,0.585-0.213,0.872-0.325c0.238-0.093,0.477-0.186,0.711-0.287c0.335-0.145,0.662-0.298,0.984-0.457
		c0.185-0.09,0.37-0.169,0.547-0.264c0.5-0.261,0.988-0.532,1.454-0.83l5.347-3.368l111.455-70.241h100.61l167.737-122.696
		l-70.881-29.654C810.103,571.947,817.227,567.913,822.102,563.834z"/>
	<g>
		<g>
			<path style="fill:#88AFD3;" d="M657.947,535.639L536.296,418.662l-153.31,10.625c-5.747,15.558-4.157,25.087,0,38.199
				l122.024,116.975L657.947,535.639z"/>
			<path style="fill:#567B9E;" d="M536.296,418.662l-31.475,2.182l-1.792,122.945c-5.207,12.142-7.842,27.263,1.792,40.49
				l0.189,0.183l152.937-48.823L536.296,418.662z"/>
			<path style="fill:#E5C7A3;" d="M652.156,530.113c-5.809-9.518-5.022-17.984,0-30.884l-141.049,45.063
				c-5.767,11.099-5.404,19.653,0,30.88L652.156,530.113z"/>
			<path style="fill:#CCA77F;" d="M511.435,575.499c0,0,7.228-19.989-1.242-33.337C510.192,542.162,501.278,563.251,511.435,575.499
				z"/>
			<polygon style="fill:#6A8FB7;" points="657.57,497.879 657.325,492.793 536.296,382.606 383.358,431.43 505.011,548.408 			"/>
			<polygon style="fill:#567B9E;" points="536.296,382.606 513.06,390.026 544.243,398.903 502.395,545.889 505.066,548.915 
				657.771,498.205 657.936,492.099 			"/>
			<polygon style="fill:#7FABD3;" points="657.947,492.093 536.296,375.118 383.358,423.942 505.011,540.918 			"/>
			<polygon style="opacity:0.6;fill:#BA906E;" points="539.499,523.276 560.336,523.276 657.947,492.093 614.185,450.016 
				539.499,450.016 			"/>
			<path style="fill:#ACCDE5;" d="M496.764,573.093c-4.775-11.443-4.441-19.267-0.244-27.594L386.14,438.781
				c-4.709,7.365-3.866,15.079-0.732,27.106L496.764,573.093z"/>
			<path style="fill:#D2EAF9;" d="M484.396,536.715l-4.497-4.733c-2.217,6.148-2.355,11.102-1.6,19.817l4.498,4.736
				C481.443,548.053,481.858,543.178,484.396,536.715z"/>
			<path style="fill:#D2EAF9;" d="M476.826,530.121l-4.498-4.733c-2.219,6.148-2.35,11.102-1.599,19.819l4.498,4.733
				C473.874,541.46,474.289,536.585,476.826,530.121z"/>
			<path style="fill:#D2EAF9;" d="M394.286,449.29l-4.497-4.733c-2.217,6.147-2.352,11.103-1.599,19.819l4.497,4.735
				C391.333,460.629,391.75,455.754,394.286,449.29z"/>
			<polygon style="fill:#CCA77F;" points="510.684,554.777 638.153,521.077 512.391,556.731 			"/>
			<polygon style="fill:#CCA77F;" points="508.728,569.187 584.676,546.718 510.438,571.141 			"/>
			<polygon style="fill:#EFD3B4;" points="650.853,513.508 579.792,533.287 648.657,509.844 			"/>
		</g>
		<g>
			<path style="fill:#DFE86D;" d="M647.924,132.553c0,3.506,2.842,6.348,6.349,6.348c3.509,0,6.35-2.842,6.35-6.348
				c0-3.506-2.841-6.349-6.35-6.349C650.766,126.204,647.924,129.047,647.924,132.553z"/>
			<path style="fill:#DFE86D;" d="M647.924,372.521c0,3.507,2.842,6.35,6.349,6.35c3.509,0,6.35-2.843,6.35-6.35
				c0-3.506-2.841-6.349-6.35-6.349C650.766,366.172,647.924,369.015,647.924,372.521z"/>
			<g>
				<polygon style="fill:#DFE86D;" points="580.356,417.8 578.707,414.948 653.978,371.492 653.978,135.163 571.396,182.84 
					569.753,179.988 657.273,129.456 657.273,373.391 				"/>
			</g>
		</g>
		<g>
			<path style="fill:#9B8837;" d="M484.378,347.368l-124.777,69.925l0.653,3.417l179.003,102.263l124.642-71.957
				c3.575-10.168,4.311-17.735-0.182-23.956L484.378,347.368z"/>
			<polygon style="fill:#DDC862;" points="484.378,345.253 359.74,417.213 539.258,520.859 661.11,448.876 			"/>
			<path style="fill:#E5C7A3;" d="M370.58,396.458c2.805,7.654,3.51,13.164,0,19.6l170.173,98.25l118.24-66.735
				c3.583-5.048,3.255-17.746-2.214-20.136L370.58,396.458z"/>
			<path style="fill:#FFF2DC;" d="M540.31,416.104l-170.219-18.426c2.805,7.654,3.51,13.164,0,19.599l170.174,98.252l0.045-0.026
				C546.625,504.086,543.298,454.025,540.31,416.104z"/>
			<polygon style="fill:#E5C7A3;" points="544.626,505.693 373.197,407.524 371.977,401.665 546.091,496.17 			"/>
			<polygon style="fill:#DDC862;" points="484.378,323.972 359.765,393.359 359.601,397.103 539.258,499.576 663.899,427.618 
				663.876,425.107 			"/>
			<polygon style="fill:#F7DF79;" points="484.378,321.286 359.74,393.246 539.258,496.891 663.899,424.931 			"/>
			<polygon style="fill:#FFEB97;" points="487.603,331.602 377.603,395.108 536.034,486.576 646.03,423.068 			"/>
			<polygon style="opacity:0.6;fill:#BA906E;" points="630.341,405.082 530.438,479.126 570.267,479.321 663.899,424.931 			"/>
			<polygon style="fill:#E5C7A3;" points="543.242,510.01 504.168,487.055 545.44,508.298 			"/>
		</g>
		<g>
			<path style="fill:#E26756;" d="M503.099,308.842l-117.703,1.617c-8.761,28.395-9.676,45.708,0.044,66.308l145.534,103.024
				l117.655-67.927l-31.578-22.356L503.099,308.842z"/>
			<path style="fill:#D85A4C;" d="M626.296,396.055L526.09,453.906L380.558,350.882c-0.756-1.603-1.426-3.179-2.056-4.748
				c-0.168,10.61,2.018,20.204,6.938,30.633l145.534,103.024l117.655-67.927L626.296,396.055z"/>
			<polygon style="fill:#AA3F33;" points="617.051,389.508 530.217,328.04 530.217,479.259 530.974,479.791 648.629,411.864 			"/>
			<path style="fill:#FFF2DC;" d="M529.961,419.03c-8.666,22.296-8.643,37.952,0,55.179l110.256-63.426
				c-1.706-19.467-1.937-35.582,2.813-56.074L529.961,419.03z"/>
			<path style="fill:#E5C7A3;" d="M529.961,419.03c-8.666,22.296-8.643,37.952,0,55.179l110.256-63.426
				c-1.706-19.467-1.937-35.582,2.813-56.074L529.961,419.03z"/>
			<path style="fill:#CCA77F;" d="M532.661,472.969c0,0,21.49-30.281-0.733-55.676C531.928,417.293,519.717,444.153,532.661,472.969
				z"/>
			<path style="fill:#CCA77F;" d="M642.142,358.684c0,0-82.509,47.986-109.401,62.027c-6.208,3.241-1.22-2.076-0.731-3.417
				c0.714-1.961,111.354-63.494,111.354-63.494L642.142,358.684z"/>
			<path style="fill:#AF8964;" d="M527.286,462.161c0,0,8.232-19.357-0.434-34.77C526.852,427.391,522.74,444.728,527.286,462.161z"
				/>
			<path style="fill:#AA3F33;" d="M534.545,410.226l-4.107,2.338c-10.445,26.893-10.411,45.779,0,66.563l3.947-2.277
				C524.697,456.1,524.724,436.746,534.545,410.226z"/>
			<polygon style="fill:#F47A6E;" points="503.099,242.165 385.44,310.093 530.974,413.116 648.629,345.19 			"/>
			<path style="fill:#FFD18F;" d="M504.028,247.879l-109.792,63.387l135.806,96.136l109.788-63.386L504.028,247.879z
				 M529.262,402.618l-127.661-90.37l103.212-59.584l127.654,90.37L529.262,402.618z"/>
			<polygon style="fill:#FFD18F;" points="437.748,303.914 492.179,272.49 503.528,279.042 449.098,310.465 			"/>
			<path style="fill:#FFD18F;" d="M624.533,343.806c1.102-0.637,1.097-1.67-0.01-2.312c-1.111-0.642-2.905-0.644-4.008-0.006
				c-1.098,0.637-1.095,1.672,0.016,2.309C621.641,344.438,623.435,344.444,624.533,343.806z"/>
			<polygon style="opacity:0.6;fill:#BA906E;" points="499.774,291.121 607.223,370.568 648.57,345.17 570.756,287.865 			"/>
			<g>
				<path style="fill:#FFB38D;" d="M403.86,335.649l-11.756-8.322l-0.081,0.003c-6.225,20.175-6.877,32.479,0.035,47.117
					l9.827,6.961C397.245,367.647,398.32,354.548,403.86,335.649z"/>
			</g>
			<g>
				<path style="fill:#FFB38D;" d="M420.953,346.396l-11.755-8.323l-0.079,0.002c-6.224,20.176-6.876,32.48,0.034,47.117l9.83,6.962
					C414.337,378.393,415.413,365.294,420.953,346.396z"/>
			</g>
			<path style="fill:#CCA77F;" d="M638.809,400.849c0,0-68.704,30.936-67.398,29.307c1.299-1.63,67.722-32.238,67.722-32.238
				L638.809,400.849z"/>
			<path style="fill:#CCA77F;" d="M537.462,430.638c0,0,67.342-33.793,66.107-32.109c-1.232,1.681-66.31,35.05-66.31,35.05
				L537.462,430.638z"/>
			<polygon style="fill:#AA3F33;" points="648.57,345.17 529.924,413.041 529.922,419.288 647.761,351.603 			"/>
			<path style="fill:#FFD18F;" d="M531.737,396.31c1.102-0.639,1.095-1.672-0.013-2.313c-1.107-0.643-2.901-0.645-4.004-0.007
				c-1.102,0.638-1.096,1.672,0.013,2.31C528.846,396.941,530.64,396.947,531.737,396.31z"/>
			<path style="fill:#FFD18F;" d="M413.3,313.28c1.101-0.637,1.095-1.67-0.011-2.311c-1.11-0.642-2.903-0.646-4.008-0.007
				c-1.098,0.636-1.095,1.672,0.017,2.309C410.408,313.913,412.201,313.918,413.3,313.28z"/>
		</g>
		<g>
			<path style="fill:#FFF9D4;" d="M478.917,97.64c39.865,19.112,72.334,36.064,105.142,61.476
				c-16.289,64.969,21.066,111.086-0.93,170.374c-27.696-21.08-61.033-39.277-105.147-61.475
				C495.753,237.855,461.15,160.985,478.917,97.64z"/>
			<path style="fill:#FFF1C5;" d="M552.289,195.762c19.069,32.395,32.006,64.624,37.97,91.67
				c-0.341-41.194-18.462-79.415-6.2-128.317c-32.808-25.412-65.276-42.363-105.142-61.476c-0.867,3.085-1.57,6.208-2.2,9.351
				C501.27,124.487,528.91,156.045,552.289,195.762z"/>
			<g>
				<path style="fill:#D85A4C;" d="M501.677,143.574c1.65,0.952,2.816,2.961,2.816,4.854v10.207c0,1.225-0.809,2.132-1.878,1.85
					l2.233,7.671v3.229l-6.919-3.997l-1.91-9.191l-1.426-0.823v8.092l-7.084-4.091v-25.98L501.677,143.574z M494.592,146.016v4.861
					l2.813,1.627v-4.862L494.592,146.016z"/>
				<path style="fill:#D85A4C;" d="M506.793,172.506v-25.98l15.136,8.74v3.228l-1.129,2.65l-6.957-4.015v2.896l6.957,4.012v6.497
					l-6.957-4.015v3.562l8.086,4.669v6.497L506.793,172.506z"/>
				<path style="fill:#D85A4C;" d="M538.168,164.641l3.169,24.583v3.228l-7.081-4.089l-0.42-5.475l-3.11-1.794l-0.447,4.972
					l-7.052-4.071v-3.229l3.168-20.923L538.168,164.641z M533.317,176.093l-0.648-8.095l-0.774-0.446l-0.648,7.344L533.317,176.093z
					"/>
				<path style="fill:#D85A4C;" d="M543.279,193.573v-25.98l14.133,8.161c1.652,0.953,2.816,2.96,2.816,4.851v19.524
					c0,1.892-1.164,2.558-2.816,1.604L543.279,193.573z M550.331,191.148l2.845,1.645v-12.954l-2.845-1.642V191.148z"/>
				<path style="fill:#D85A4C;" d="M493.144,189.72v-6.533l15.845,9.152v3.228l-1.134,2.649l-3.395-1.961v19.448l-7.081-4.09
					v-19.448L493.144,189.72z"/>
				<path style="fill:#D85A4C;" d="M520.508,208.413v-9.426l7.047,4.071v25.979l-7.047-4.07V214.91l-2.853-1.645v10.059
					l-7.048-4.071v-25.98l7.048,4.07v9.429L520.508,208.413z"/>
				<path style="fill:#D85A4C;" d="M530.144,230.533v-25.981l7.052,4.071v25.982L530.144,230.533z"/>
				<path style="fill:#D85A4C;" d="M539.135,218.43v-5.456c0-1.893,1.17-2.556,2.848-1.585l12.289,7.095v3.192l-1.096,2.705
					l-6.954-4.015v1.188l6.143,8.262c1.551,2.085,1.906,3.438,1.906,5.517v5.904c0,1.892-1.158,2.555-2.813,1.601l-12.324-7.113
					v-6.494l8.057,4.649v-1.708l-6.148-8.225C539.494,221.827,539.135,220.51,539.135,218.43z"/>
			</g>
		</g>
	</g>
	<path style="opacity:0.3;fill:#391100;" d="M868.975,767.938c0,0,0.003-0.001,0.005-0.004c-0.112-0.482-0.249-0.962-0.423-1.457
		c-0.673-1.926-4.77-1.533-9.177,0.193c-2.077-0.282-4.322-0.33-6.465,0.133c-5.034,1.083-10.912-0.262-17.06,1.204
		c-0.967-0.158-1.616-0.267-1.711-0.275c-4.957-0.462-7.434,2.194-10.466,7.058c-0.492,0.789-0.796,1.54-0.971,2.239l0.049-0.369
		l-2.805-0.007c-0.272-1.933-0.884-3.471-1.824-4.423c-0.343-0.345-0.747-0.649-1.198-0.93c-0.83-0.596-2.058-1.198-3.545-1.789
		c-0.004,0-0.004,0-0.007-0.003c-3.626-1.439-8.86-2.818-14.174-3.989c-0.022-0.004-0.044-0.012-0.067-0.017
		c-1.854-0.408-3.708-0.789-5.509-1.14c-0.092-0.018-0.184-0.037-0.274-0.054c-0.358-0.07-0.712-0.135-1.061-0.203
		c-0.177-0.031-0.348-0.066-0.523-0.096c-0.31-0.059-0.617-0.117-0.923-0.172c-0.027-0.004-0.055-0.01-0.08-0.015
		c10.039-4.254,21.881-9.805,23.979-11.189c1.306-0.867,1.848-1.769,1.78-2.646c2.584-0.161,6.105-0.741,8.807-2.489
		c5.918-3.832,10.344-6.064,8.916-6.446c-0.771-0.207-6.969,3.668-8.293,2.844c-1.863-1.18-6.082-2.549-12.997,2.706
		c-0.575-0.258-1.205-0.503-1.893-0.727c-5.024-1.646-44.651,17.191-46.453,21.223c-0.198,0.288-0.343,0.579-0.372,0.865
		c-0.01,0.113,0.003,0.226,0.029,0.343c0.469,2.09,6.567,5.512,12.8,8.466c-17.591,6.709-32.352,11.352-47.298,14.326
		c-48.803,9.72-85.177,2.945-93.246,7.406c-0.511,0.28-1.023,0.59-1.535,0.906c-0.07,0.044-0.141,0.088-0.212,0.132
		c-0.525,0.333-1.051,0.682-1.577,1.05c-0.002,0.003-0.006,0.003-0.009,0.004c-1.056,0.737-2.107,1.553-3.142,2.418
		c2.513,4.693,2.856,9.903,0.579,15.396c-4.688,11.315-19.434,21.444-38.884,28.268c3.165-0.163,8.442-0.473,15.038-0.878
		c0.008,0.007,0.012,0.016,0.02,0.023c2.585-0.155,5.429-0.331,8.465-0.52c0.03,2.495,0.752,4.082,3.301,3.961
		c9.52-0.465,64.583-2.466,84.839-4.442c8.433-0.829,35.749-11.882,52.663-17.892c23.71-8.415,35.777-10.351,46.502-17.016
		c7.284-4.527,12.2-11.607,14.938-18.484l3.524-1.714l0.059-0.451c0.669-0.096,1.348-0.191,2.014-0.286
		c0.456,0.896,1.111,1.572,1.697,2.04c2.209,2.987,5.82,4.859,12.732,4.692c6.84-0.171,18.41-3.529,22.59-8.871
		c0.408-0.36,0.817-0.732,1.234-1.129C864.874,782.37,870.843,775.917,868.975,767.938z"/>
	<path style="opacity:0.3;fill:#391100;" d="M501.492,757.7c2.693,1.327,5.161,2.687,6.427,3.773c0,0-1.704-5.79-8.243-9.2
		c-1.58-0.829-2.957-1.223-4.129-1.352c-2.018-2.014-6.319-2.194-10.535-1.122l-25.756-31.337h0.007h-0.007l-0.176-0.216
		l-0.376,0.097l-2.725-0.599l-27.863,6.882c0.182-0.17,0.289-0.339,0.282-0.498c-7.504,0.253-11.827,0.857-14.304,1.826l0.035-0.878
		l-6.403,0.679l-1.365-2.934c0,0-28.891,6.793-38.44,11.036c-0.925,0.328-1.705,0.733-2.295,1.231
		c-0.409,0.289-0.674,0.56-0.752,0.803c-0.319,0.31-0.438,0.682-0.558,1.026c-1.059,2.545,0.528,4.92,3.792,7.05
		c-0.861,0.022-1.736,0.052-2.631,0.073c-25.152,0.73-48.509-6.549-54.392-2.689c-0.352,0.233-0.686,0.467-1.009,0.704
		c-0.855,0.635-1.599,1.298-2.259,1.978c-29.996,0.065-126.568,5.573-151.307,6.922c-0.01-5.14-6.295-1.67-5.034,1.768
		c0.287,1.754,0.944,4.07,3.849,6.354c13.893-0.396,132.797-4.957,143.637,7.787c0.315,0.373,0.456,0.726,0.461,1.063h-0.004
		c0.133,8.624-96.169,6.786-104.897,6.633c-9.766,1.43-11.258,3.925-3.667,6.566c7.496-0.276,83.181,7.026,131.628,5.457
		c3.613,2.863,7.06,4.434,9.528,4.091c8.948-1.242,47.212-3.347,51.665-3.016c3.927,0.285,17.647,2.727,30.945,3.86
		c13.556,2.907,29.318-0.031,29.113-4.72c1.561-2.643,2.018-5.85,1.583-9.316l4.061-1.355l-0.747-1.497l4.353-0.927
		c5.343,4.217,11.696,7.178,21.629,7.733c8.857,0.499,21.833-2.09,23.772-7.695c0.216-0.271,0.429-0.562,0.64-0.857
		c0.754,1.74,1.298,3.361,1.347,4.501c0,0,3.62-5.169,1.517-10.403c0.069-0.307,0.127-0.621,0.18-0.95
		c0.968,1.348,1.726,2.594,2.037,3.54c0,0,2.159-5.669-1.479-10.623C502.261,758.461,501.881,758.054,501.492,757.7z"/>
	<g>
		<path style="fill:#FFF2BD;" d="M323.051,108.896c0-41.409-29.25-58.09-65.334-37.255c-36.089,20.834-65.342,71.293-65.342,112.7
			c0,41.409,29.253,58.088,65.342,37.253C293.801,200.759,323.051,150.303,323.051,108.896z"/>
		<path style="fill:#FFE67D;" d="M325.579,111.422c0-41.407-29.249-58.088-65.338-37.254c-36.084,20.835-65.339,71.29-65.339,112.7
			c0,41.408,29.255,58.086,65.339,37.252C296.329,203.286,325.579,152.829,325.579,111.422z"/>
		<polygon style="fill:#FFD869;" points="265.703,207.38 312.891,234.282 295.169,170.161 		"/>
		<path style="fill:#FFD869;" d="M305.686,69.044c0.201,2.488,0.311,5.059,0.311,7.722c0,48.776-34.455,108.209-76.962,132.748
			c-8.911,5.145-17.472,8.34-25.43,9.742c11.287,15.935,32.421,18.846,56.634,4.865c36.089-20.834,65.338-71.291,65.338-112.698
			C325.579,90.282,317.956,75.593,305.686,69.044z"/>
	</g>
	<g>
		<g>
			<path style="fill:#B7D5E2;" d="M638.355,710.919c4.195-2.425,6.38-5.565,6.562-8.748c0.204-3.502,2.55-22.97-2.088-25.649
				L358.182,530.749c-8.86-5.116-23.18-5.146-31.988-0.056l-159.227,72.327c-4.623,2.671-2.686,23.436-2.439,26.942
				c0.227,3.176,2.444,6.318,6.652,8.746l280.078,161.704c8.865,5.116,23.186,5.14,31.989,0.055L638.355,710.919z"/>
			<g>
				<path style="fill:#A7CAD6;" d="M228.059,575.271l-61.092,27.749c-4.623,2.671-2.686,23.436-2.439,26.942
					c0.227,3.176,2.444,6.318,6.652,8.746l74.2,42.84L228.059,575.271z"/>
				<path style="fill:#A7CAD6;" d="M642.829,676.521L366.128,534.818l38.949,238.929l46.181,26.666
					c8.865,5.116,23.186,5.14,31.989,0.055l155.108-89.549c4.195-2.425,6.38-5.565,6.562-8.748
					C645.121,698.669,647.467,679.201,642.829,676.521z"/>
			</g>
			<path style="fill:#8FB4C1;" d="M642.829,676.521l-187.081-95.81v221.664c8.696,2.995,20.053,2.392,27.499-1.908l155.108-89.549
				c4.195-2.425,6.38-5.565,6.562-8.748C645.121,698.669,647.467,679.201,642.829,676.521z"/>
			<g>
				<path style="fill:#79A0AA;" d="M455.748,736.446v65.93c8.696,2.995,20.053,2.392,27.499-1.908l5.836-3.368
					C475.087,780.179,463.702,759.563,455.748,736.446z"/>
			</g>
			<path style="fill:#DCF3FF;" d="M638.355,689.635c8.804-5.087,8.759-13.354-0.101-18.465L358.182,509.466
				c-8.86-5.113-23.18-5.142-31.988-0.059l-155.106,89.555c-8.813,5.084-8.763,13.352,0.093,18.465l280.078,161.702
				c8.865,5.118,23.186,5.143,31.989,0.062L638.355,689.635z"/>
			<g>
				<path style="fill:#E9F8FF;" d="M284.923,533.234l-113.836,65.727c-8.813,5.084-8.763,13.352,0.093,18.465l141.55,81.721
					L284.923,533.234z"/>
				<path style="fill:#E9F8FF;" d="M638.255,671.17L463.291,570.148l33.702,201.104l141.362-81.617
					C647.159,684.548,647.114,676.281,638.255,671.17z"/>
			</g>
			<path style="fill:#EEFDFF;" d="M453.794,779.764L173.715,618.059c-8.856-5.112-8.906-13.379-0.093-18.463l155.108-89.554
				c6.326-3.655,15.484-4.622,23.434-3.004c-8.47-2.434-18.949-1.683-25.969,2.368l-155.106,89.555
				c-8.813,5.084-8.763,13.352,0.093,18.465l280.078,161.702c2.494,1.44,5.44,2.434,8.554,3.063
				C457.652,781.575,455.594,780.801,453.794,779.764z"/>
			<polygon style="fill:#597F87;" points="254.236,564.619 286.071,546.21 289.581,548.229 257.746,566.639 			"/>
			<polygon style="fill:#79A0AA;" points="519.047,726.392 556.362,704.83 577.902,717.262 540.586,738.824 			"/>
			<polygon style="fill:#DCF3FF;" points="524.116,725.602 555.005,707.758 572.827,718.047 541.94,735.894 			"/>
			<polygon style="fill:#405B66;" points="364.939,519.139 188.018,621.288 438.08,766.462 615.009,664.31 			"/>
			<polygon style="fill:#FFFFD7;" points="365.637,521.502 192.095,621.699 437.382,764.097 610.924,663.901 			"/>
			<polygon style="fill:#9CE3E5;" points="366.291,523.71 195.912,622.085 436.727,761.887 607.109,663.519 			"/>
			<polygon style="fill:#82CECE;" points="251.993,616.481 251.993,654.642 436.727,761.887 566.843,686.764 566.843,668.179 			"/>
			<path style="opacity:0.6;fill:#BA906E;" d="M456.38,738.303l97.686,0.001l84.289-48.669c4.489-2.592,6.663-6.009,6.558-9.413
				c-0.025-0.821-0.178-1.637-0.471-2.444c0-0.004,0-0.004,0-0.004c-0.144-0.398-0.321-0.796-0.527-1.188
				c-0.018-0.031-0.043-0.064-0.058-0.094c-0.197-0.36-0.419-0.718-0.671-1.073c-0.055-0.075-0.12-0.145-0.179-0.218
				c-0.234-0.309-0.469-0.612-0.748-0.913c-0.123-0.138-0.276-0.267-0.41-0.399c-0.234-0.234-0.457-0.467-0.713-0.693
				c-0.248-0.211-0.524-0.413-0.791-0.62c-0.185-0.141-0.353-0.284-0.548-0.421c-0.479-0.338-0.994-0.669-1.543-0.983
				L458.212,567.218h-1.832V738.303z"/>
			<path style="fill:#597F87;" d="M592.899,727.377c0-2.553-1.801-3.578-4.024-2.295l-32.558,18.799
				c-2.019,1.165-3.657,3.992-3.657,6.313c0,3.009,2.129,4.224,4.752,2.707l31.097-17.956
				C590.934,733.547,592.899,730.16,592.899,727.377z"/>
			<path style="fill:#405B66;" d="M586.203,730.851c0.01-1.927-1.352-2.693-3.045-1.727l-24.742,14.191
				c-1.537,0.879-2.787,3.01-2.797,4.76c-0.013,2.27,1.595,3.183,3.591,2.039l23.631-13.556
				C584.688,735.502,586.188,732.948,586.203,730.851z"/>
			<path style="fill:#597F87;" d="M507.661,777.019c-0.003-1.508-1.059-2.115-2.37-1.351c-1.296,0.759-2.353,2.596-2.347,4.101
				c0.007,1.509,1.059,2.115,2.37,1.348C506.613,780.359,507.666,778.525,507.661,777.019z"/>
			<path style="fill:#597F87;" d="M517.053,771.536c-0.005-1.504-1.06-2.11-2.371-1.35c-1.303,0.761-2.352,2.6-2.348,4.107
				c0.004,1.504,1.059,2.112,2.367,1.346C516.001,774.878,517.056,773.045,517.053,771.536z"/>
			<path style="fill:#597F87;" d="M526.442,766.063c-0.01-1.507-1.063-2.115-2.372-1.353c-1.3,0.76-2.349,2.593-2.344,4.1
				c0.003,1.506,1.06,2.116,2.365,1.35C525.394,769.4,526.448,767.567,526.442,766.063z"/>
			<path style="fill:#597F87;" d="M535.828,760.582c-0.005-1.508-1.054-2.111-2.359-1.35c-1.307,0.759-2.358,2.597-2.352,4.102
				c0.002,1.508,1.06,2.115,2.364,1.348C534.785,763.924,535.835,762.091,535.828,760.582z"/>
			<path style="fill:#597F87;" d="M606.509,719.148c-0.006-1.51-1.06-2.112-2.372-1.35c-1.298,0.761-2.349,2.594-2.346,4.102
				c0.004,1.508,1.06,2.113,2.371,1.345C605.458,722.488,606.513,720.651,606.509,719.148z"/>
			<path style="fill:#597F87;" d="M615.898,713.666c-0.004-1.505-1.057-2.111-2.368-1.349c-1.304,0.76-2.353,2.596-2.346,4.104
				c0.003,1.505,1.057,2.114,2.363,1.347C614.849,717.008,615.905,715.174,615.898,713.666z"/>
			<path style="fill:#597F87;" d="M625.289,708.191c-0.008-1.508-1.063-2.113-2.368-1.35c-1.305,0.759-2.353,2.593-2.351,4.101
				c0.008,1.507,1.063,2.113,2.367,1.346C624.24,711.531,625.294,709.699,625.289,708.191z"/>
			<path style="fill:#597F87;" d="M634.676,702.71c-0.004-1.505-1.054-2.111-2.361-1.348c-1.307,0.758-2.357,2.595-2.354,4.104
				c0.008,1.506,1.062,2.112,2.366,1.345C633.632,706.051,634.68,704.218,634.676,702.71z"/>
		</g>
		<g>
			<polygon style="fill:#72504F;" points="361.126,558.115 251.993,621.129 457.648,739.861 566.782,676.852 			"/>
			<polygon style="fill:#5E3E3E;" points="457.856,613.962 457.856,739.743 566.782,676.852 			"/>
			<polygon style="fill:#9E7A7A;" points="361.126,553.471 251.993,616.481 457.648,735.219 566.782,672.207 			"/>
			<rect x="260.795" y="613.794" style="fill:#72504F;" width="51.537" height="9.398"/>
			<rect x="303.04" y="619.598" style="fill:#72504F;" width="51.534" height="22.601"/>
			<rect x="332.609" y="635.231" style="fill:#72504F;" width="51.534" height="22.6"/>
			<rect x="338.52" y="636.918" style="fill:#72504F;" width="51.538" height="22.601"/>
			<polygon style="fill:#72504F;" points="413.29,651.282 363.87,651.492 361.756,673.882 413.29,673.882 			"/>
			<rect x="384.144" y="663.957" style="fill:#72504F;" width="51.535" height="22.6"/>
			<rect x="398.081" y="668.179" style="fill:#72504F;" width="51.538" height="22.602"/>
			<polygon style="fill:#72504F;" points="458.492,678.743 410.967,679.161 406.958,701.345 458.492,701.345 			"/>
			<polygon style="fill:#72504F;" points="474.966,688.034 427.442,688.456 423.433,710.636 474.966,710.636 			"/>
			<polygon style="fill:#72504F;" points="565.573,673.672 563.887,670.289 531.359,650.857 456.168,703.24 452.154,725.42 
				476.025,725.42 			"/>
			<polygon style="fill:#E5772C;" points="303.482,515.506 401.611,461.363 401.611,588.45 303.482,642.595 300.928,623.934 			"/>
			<polygon style="fill:#F48438;" points="367.861,494.908 308.556,529.15 308.556,630.834 367.861,596.6 			"/>
			<path style="fill:#FC9447;" d="M303.427,515.434l-11.475-6.868v127.087c2.282,3.82,5.619,5.009,11.475,6.868V515.434z"/>
			<g>
				<path style="fill:#EF7A3F;" d="M302.185,553.78v-26.192l-8.994-5.383v26.428C296.102,550.99,299.031,552.802,302.185,553.78z"/>
				<path style="fill:#EF7A3F;" d="M293.191,593.067v28.743c1.79,2.999,4.406,3.93,8.994,5.384v-29.27
					C298.759,596.542,295.943,595.007,293.191,593.067z"/>
			</g>
			<polygon style="fill:#6CC1B6;" points="332.134,530.688 430.263,476.548 430.263,603.638 332.134,657.778 			"/>
			<path style="fill:#ABEDE2;" d="M332.49,530.688l-13.609-8.185v127.09c2.813,4.671,6.812,6.741,13.609,8.188V530.688z"/>
			<path style="fill:#C7FFF4;" d="M329.911,643.152c-3.246-0.773-5.736-2.267-9.414-5.398l0.025,4.756
				c3.683,3.145,6.003,4.511,9.415,5.398L329.911,643.152z"/>
			<path style="fill:#C7FFF4;" d="M329.911,634.493c-3.246-0.775-5.736-2.268-9.414-5.401l0.025,4.758
				c3.683,3.144,6.003,4.513,9.415,5.398L329.911,634.493z"/>
			<path style="fill:#C7FFF4;" d="M329.911,625.83c-3.246-0.771-5.736-2.266-9.414-5.398l0.025,4.758
				c3.683,3.143,6.003,4.513,9.415,5.399L329.911,625.83z"/>
			<path style="fill:#C7FFF4;" d="M329.911,613.794c-3.246-0.774-5.736-2.271-9.414-5.401l0.025,4.757
				c3.683,3.144,6.003,4.514,9.415,5.398L329.911,613.794z"/>
			<path style="fill:#C7FFF4;" d="M329.911,570.917c-3.246-0.771-5.736-2.267-9.414-5.4l0.025,4.759
				c3.683,3.146,6.003,4.512,9.415,5.398L329.911,570.917z"/>
			<path style="fill:#C7FFF4;" d="M329.911,562.255c-3.246-0.771-5.736-2.266-9.414-5.396l0.025,4.757
				c3.683,3.146,6.003,4.514,9.415,5.398L329.911,562.255z"/>
			<path style="fill:#C7FFF4;" d="M329.911,553.596c-3.246-0.771-5.736-2.267-9.414-5.398l0.025,4.759
				c3.683,3.142,6.003,4.512,9.415,5.396L329.911,553.596z"/>
			<path style="fill:#C7FFF4;" d="M329.911,541.559c-3.246-0.773-5.736-2.269-9.414-5.399l0.025,4.758
				c3.683,3.143,6.003,4.513,9.415,5.399L329.911,541.559z"/>
			<polygon style="fill:#F9D67D;" points="338.185,532.713 436.313,478.569 339.792,660.891 338.188,659.798 			"/>
			<polygon style="fill:#F2B368;" points="339.699,533.577 437.828,479.436 437.828,606.525 339.699,660.666 			"/>
			<path style="fill:#FFF0D2;" d="M343.803,542.299l91.818-58.37L364.929,668.6c-6.095-8.535-11.761-11.396-21.335-13.939
				L343.803,542.299z"/>
			<polygon style="fill:#F4D6AB;" points="383.197,581.108 383.197,620.876 435.621,483.929 343.803,542.299 343.771,558.343 			"/>
			<polygon style="fill:#F9D67D;" points="361.851,546.89 459.975,492.745 363.444,674.83 361.851,673.975 			"/>
			<polygon style="fill:#F2B368;" points="363.221,547.733 461.346,493.591 461.352,620.676 363.221,674.822 			"/>
			<polygon style="fill:#4CA9BF;" points="382.29,563.935 473.327,498.565 488.36,624.764 397.33,690.135 			"/>
			<polygon style="fill:#E5CE6C;" points="405.848,572.646 504.77,519.611 407.116,701.234 405.848,699.734 			"/>
			<polygon style="fill:#CCB65A;" points="406.958,574.229 505.882,521.195 505.882,648.287 406.958,701.318 			"/>
			<path style="fill:#FFF0D2;" d="M408.865,578.053l86.866-57.763l-70.397,185.697c-4.794-5.665-8.145-8.387-15.842-9.507
				L408.865,578.053z"/>
			<polygon style="fill:#F4D6AB;" points="444.629,616.524 444.629,655.081 495.731,520.29 408.865,578.053 408.957,595.931 			"/>
			<path style="fill:#6BC2DD;" d="M387.157,567.232l-14.635-6.981l11.466,126.09c3.149,3.987,6.654,5.095,13.624,3.962
				L387.157,567.232z"/>
			<path style="fill:#81DAEF;" d="M384.781,561.94l-11.152-5.635l11.043,122.352c2.688,3.398,4.347,4.022,10.291,3.056
				L384.781,561.94z"/>
			<polygon style="fill:#E5CE6C;" points="423.254,583.199 521.379,529.055 425.334,710.262 423.254,710.289 			"/>
			<polygon style="fill:#CCB65A;" points="425.155,583.201 523.281,529.057 523.281,656.146 425.155,710.29 			"/>
			<polygon style="fill:#726E5F;" points="438.323,612.523 536.229,558.981 536.235,663.151 442.123,712.006 			"/>
			<path style="fill:#F4D6AB;" d="M440.525,617.508l94.109-49.34c1.772,3.289,4.005,6.032,10.773,6.34L441.149,710.104
				L440.525,617.508z"/>
			<polygon style="fill:#FFF0D2;" points="449.254,612.683 440.525,617.508 441.149,710.104 486.583,633.332 			"/>
			<path style="fill:#B2AB8D;" d="M453.402,622.03c-6.991-0.648-11.273-4.109-15.079-8.874v104.246
				c2.761,4.049,7.315,6.478,15.079,8.873V622.03z"/>
			<polygon style="fill:#726E5F;" points="453.287,622.629 551.411,568.485 551.411,672.13 453.287,726.275 			"/>
			<polygon style="fill:#938D7C;" points="540.102,585.109 470.98,625.231 470.993,636.31 540.122,596.192 			"/>
			<polygon style="fill:#938D7C;" points="517.731,614.162 491.384,629.556 491.398,633.798 517.744,618.407 			"/>
			<polygon style="fill:#938D7C;" points="521.848,637.291 495.502,652.684 495.517,688.113 521.862,672.72 			"/>
			<path style="fill:#938D7C;" d="M547.943,577.479c0-1.61-1.141-2.25-2.542-1.443c-1.4,0.808-2.532,2.76-2.528,4.369
				c-0.004,1.611,1.128,2.249,2.528,1.446C546.803,581.045,547.943,579.088,547.943,577.479z"/>
			<path style="fill:#938D7C;" d="M547.943,667.139c0-1.611-1.141-2.248-2.542-1.442c-1.4,0.806-2.532,2.76-2.528,4.37
				c-0.004,1.609,1.128,2.248,2.528,1.442C546.803,670.703,547.943,668.747,547.943,667.139z"/>
			<polygon style="fill:#72504F;" points="361.126,428.517 251.993,491.525 457.648,610.263 566.782,547.253 			"/>
			<polygon style="fill:#5E3E3E;" points="457.856,484.365 457.856,610.144 566.782,547.253 			"/>
			<polygon style="fill:#9E7A7A;" points="361.126,424.292 251.993,487.301 457.648,606.038 566.782,543.026 			"/>
			<polygon style="fill:#72504F;" points="561.462,546.309 562.094,540.291 520.908,515.579 456.698,565.738 451.629,590.03 
				485.426,590.03 			"/>
			<rect x="353.52" y="504.275" style="fill:#72504F;" width="43.087" height="29.995"/>
			<rect x="294.907" y="470.693" style="fill:#72504F;" width="43.088" height="29.994"/>
			<rect x="260.8" y="485.69" style="fill:#72504F;" width="51.532" height="7.92"/>
			<polygon style="fill:#72504F;" points="419.101,522.017 376.014,522.017 370.944,546.309 414.032,546.309 			"/>
			<polygon style="fill:#72504F;" points="461.554,545.781 418.466,545.781 413.398,570.07 456.485,570.07 			"/>
			<polygon style="fill:#72504F;" points="442.229,536.275 399.141,536.275 394.074,560.566 437.158,560.566 			"/>
			<rect x="331.976" y="492.87" style="fill:#72504F;" width="43.087" height="29.997"/>
			<polygon style="fill:#4CA9BF;" points="283.017,376.151 371.721,334.665 364.317,445.458 275.613,486.947 			"/>
			<polygon style="fill:#F4D6AB;" points="283.714,378.458 369.336,338.985 388.988,349.629 277.359,481.739 			"/>
			<path style="fill:#FFF0D2;" d="M351.732,391.503c-22.014-4.046-41.38-10.987-55.112-18.996l-12.907,5.951l-6.354,103.281
				l76.007-89.951C352.822,391.692,352.282,391.605,351.732,391.503z"/>
			<polygon style="fill:#3E909E;" points="302.481,389.611 391.186,348.122 383.78,458.914 295.072,500.403 			"/>
			<polygon style="fill:#DB4970;" points="308.239,382.766 406.364,328.625 406.364,455.714 308.239,509.856 			"/>
			<path style="fill:#DB4970;" d="M308.239,382.766l98.125-54.141c0.202,50.038,0.892,114.234,0,127.089l-98.125,54.142V382.766z"/>
			<polygon style="fill:#FFF0D2;" points="309.853,385.029 404.616,333.422 427.869,344.081 310.477,503.456 			"/>
			<path style="fill:#F4D6AB;" d="M404.616,333.422l-89.209,48.582c0.516,0.111,1.035,0.212,1.559,0.331
				c12.119,2.733,21.382,7.441,20.688,10.513c-0.688,3.073-11.078,3.35-23.196,0.616c-1.575-0.355-3.104-0.748-4.564-1.161
				l0.583,111.153l117.392-159.375L404.616,333.422z"/>
			<path style="fill:#6BC2DD;" d="M303.061,389.863c-9.954-1.702-15.652-5.644-20.395-13.666l-7.406,110.795
				c1.534,6.31,9.975,10.785,20.397,13.664L303.061,389.863z"/>
			<polygon style="fill:#DB4970;" points="332.134,396.331 430.263,342.189 430.263,469.278 332.134,523.416 			"/>
			<path style="fill:#ED5887;" d="M338.405,400.99l-0.004,110.836l85.585-47.216l0.006-110.837L338.405,400.99z M421.719,462.925
				l-81.046,44.714V402.68l81.046-44.718V462.925z"/>
			<path style="fill:#EF7F9D;" d="M332.49,396.333c-14.495-1.317-19.677-7.484-24.33-14.05v127.09
				c6.257,8.189,11.847,13.738,24.33,14.043V396.333z"/>
			<g>
				<path style="fill:#FF9CBB;" d="M329.337,452.093V410.34c-11.003-1-14.939-5.682-18.474-10.666l0.004,41.855
					C316.199,448.254,321.947,452.919,329.337,452.093z"/>
				<path style="fill:#FF9CBB;" d="M310.867,473.756v22.402c4.753,6.217,8.996,10.427,18.477,10.662v-23.154
					C322.621,483.826,316.753,480.145,310.867,473.756z"/>
			</g>
			<g>
				<polygon style="fill:#F2B368;" points="338.432,424.333 436.56,370.19 436.56,471.216 338.432,525.358 				"/>
				<polygon style="fill:#FFF0D2;" points="340.856,427.239 435.621,375.636 450.219,380.801 341.481,519.602 				"/>
				<path style="fill:#F4D6AB;" d="M435.621,375.636l-82.941,45.165c13.998,2.701,24.225,9.767,23.239,16.375
					c-1.044,7.007-14.306,10.839-29.622,8.561c-1.832-0.271-3.607-0.625-5.321-1.038l0.506,74.903l108.738-138.801L435.621,375.636z
					"/>
				<path style="fill:#F9D67D;" d="M353.633,432.891c-7.202-1.186-12.009-2.917-15.683-8.558v101.025
					c2.417,4.981,8.535,6.745,15.683,8.555l4.109-48.856L353.633,432.891z"/>
				<polygon style="fill:#DBAA49;" points="353.52,432.891 451.644,378.747 451.644,479.772 353.52,533.913 				"/>
				<path style="fill:#FFF3AE;" d="M347.945,505.44c-3.673-0.742-6.119-1.832-8.276-4.771v21.028
					c1.767,3.158,4.514,4.23,8.276,4.776V505.44z"/>
				<path style="fill:#FFF3AE;" d="M347.945,435.952c-3.673-0.742-6.119-1.833-8.276-4.774v21.03
					c1.767,3.156,4.514,4.229,8.276,4.775V435.952z"/>
				<path style="fill:#F2BF64;" d="M448.601,383.562l-92.037,50.783v94.756l92.037-50.785V383.562z M358.712,525.714v-90.34
					l87.745-48.417l0.004,90.338L358.712,525.714z"/>
				<path style="fill:#F2BF64;" d="M442.798,392.732l-80.437,44.384v82.812l80.442-44.383L442.798,392.732z M364.242,516.971
					v-78.957l76.685-42.315l0.004,78.956L364.242,516.971z"/>
			</g>
			<path style="fill:#4CA9BF;" d="M381.963,512.1c0-3.672-2.589-5.153-5.787-3.306c-3.202,1.85-5.796,6.324-5.796,10
				c0,3.669,2.589,5.148,5.786,3.304C379.364,520.249,381.963,515.773,381.963,512.1z"/>
			<path style="fill:#4CA9BF;" d="M381.963,478.124c0-3.673-2.589-5.149-5.787-3.305c-3.202,1.848-5.796,6.323-5.796,9.997
				c0,3.676,2.589,5.151,5.786,3.305C379.364,486.273,381.963,481.799,381.963,478.124z"/>
			<path style="fill:#4CA9BF;" d="M381.963,445.179c0-3.673-2.589-5.151-5.787-3.303c-3.202,1.845-5.796,6.322-5.796,9.994
				c0,3.672,2.589,5.152,5.786,3.305C379.364,453.325,381.963,448.85,381.963,445.179z"/>
			<polygon style="fill:#4CA9BF;" points="369.559,417.339 467.683,363.198 370.84,546.309 368.518,544.619 			"/>
			<polygon style="fill:#308A99;" points="371.032,419.454 469.164,365.311 469.164,492.4 371.032,546.544 			"/>
			<path style="fill:#FFF0D2;" d="M374.048,423.021l94.763-51.605l23.252,10.659l-95.561,174.038
				c-6.355-8.439-13.206-10.987-21.831-14.665L374.048,423.021z"/>
			<path style="fill:#F4D6AB;" d="M379.712,421.483c13.647,0,24.712,35.603,24.712,79.521c0,19.568-2.204,37.479-5.848,51.334
				l93.487-170.264l-23.252-10.659l-94.763,51.605v0.582C375.869,422.229,377.76,421.483,379.712,421.483z"/>
			<polygon style="fill:#4CA9BF;" points="391.962,432.069 491.147,377.716 394.499,560.459 391.962,559.154 			"/>
			<polygon style="fill:#308A99;" points="394.286,433.339 492.409,379.195 492.409,506.285 394.286,560.426 			"/>
			<polygon style="fill:#DB4970;" points="399.354,435.274 497.484,381.133 497.484,508.222 399.354,562.366 			"/>
			<polygon style="fill:#6CC1B6;" points="399.354,435.274 497.484,381.133 497.484,508.222 399.354,562.366 			"/>
			<polygon style="fill:#FFF0D2;" points="400.969,437.538 495.731,385.929 518.988,396.587 401.596,555.963 			"/>
			<path style="fill:#F4D6AB;" d="M495.731,385.929l-89.793,48.9c6.024,0.431,10.841,10.234,10.841,22.297
				c0,12.334-5.035,22.334-11.246,22.334c-1.544,0-3.012-0.618-4.354-1.734l0.417,78.237l117.392-159.375L495.731,385.929z"/>
			<polygon style="fill:#6CC1B6;" points="413.611,444.294 500.104,397.464 500.104,524.554 413.086,569.754 			"/>
			<path style="fill:#5BAA9F;" d="M417.918,448.216l-0.482,113.036l78.41-40.725l0.004-114.509L417.918,448.216z M493.891,518.676
				l-74.463,38.677l0.461-107.345l74.011-40.074L493.891,518.676z"/>
			<path style="fill:#9FEDE6;" d="M413.928,443.978c-7.247,0.104-11.261-3.788-14.654-9.186v127.086
				c0.956,3.728,6.011,6.826,14.017,7.876L413.928,443.978z"/>
			<polygon style="fill:#ADA136;" points="429.552,472.672 513.191,428.232 513.197,533.429 429.552,577.867 			"/>
			<path style="fill:#FFF0D2;" d="M431.971,479.326l75.294-40.195c3.444,6.177,11.272,8.601,23.25,10.657l-97.92,122.323
				L431.971,479.326z"/>
			<path style="fill:#F4D6AB;" d="M507.266,439.131l-63.423,33.858c13.831,5.043,23.662,12.654,22.064,17.183
				c-1.634,4.621-14.526,4.279-28.796-0.762c-1.763-0.624-3.462-1.289-5.086-1.984l0.57,84.685l97.92-122.323
				C518.537,447.732,510.71,445.308,507.266,439.131z"/>
			<path style="fill:#E2D450;" d="M453.402,486.96c-11.293-1.428-17.53-6.136-24.335-14.049v104.955
				c6.841,9.005,12.032,12.761,24.335,14.048V486.96z"/>
			<g>
				<path style="fill:#FFEE73;" d="M450.314,529.816v-31.74c-8.62-1.089-13.382-4.684-18.579-10.722l0.003,31.739
					C437.648,525.906,442.229,528.532,450.314,529.816z"/>
				<path style="fill:#FFEE73;" d="M431.738,533.79v33.685c5.223,6.872,9.185,9.744,18.576,10.723v-33.684
					C442.258,542.794,437.343,540.45,431.738,533.79z"/>
			</g>
			<polygon style="fill:#ADA136;" points="453.287,487.455 533.474,442.913 533.474,547.369 453.287,591.914 			"/>
			<path style="fill:#C6B642;" d="M528.962,451.278l-71.166,39.546v92.73l71.17-39.554L528.962,451.278z M459.698,580.018v-87.77
				l67.363-37.436v87.77L459.698,580.018z"/>
			<polygon style="fill:#C6B642;" points="513.365,473.105 477.554,493.779 477.548,501.991 513.357,481.316 			"/>
			<rect x="455.2" y="442.796" style="fill:#5E3E3E;" width="7.255" height="293.816"/>
			<rect x="255.796" y="337.525" style="fill:#72504F;" width="7.262" height="284.236"/>
			<rect x="559.532" y="392.762" style="fill:#5E3E3E;" width="7.255" height="284.549"/>
			<polygon style="fill:#72504F;" points="252.142,330.665 251.993,337.56 457.648,456.299 566.782,393.289 566.423,386.001 			"/>
			<polygon style="fill:#5E3E3E;" points="566.423,386.001 456.168,366.59 456.168,455.445 457.648,456.299 566.782,393.289 			"/>
			<polygon style="fill:#5E3E3E;" points="562.971,395.292 559.882,393.329 457.525,605.092 460.614,607.045 			"/>
			<polygon style="fill:#5E3E3E;" points="459.129,456.125 461.346,452.941 565.81,544.704 563.442,546.968 			"/>
			<polygon style="fill:#5E3E3E;" points="562.975,551.248 559.882,549.413 458.995,734.688 462.095,736.516 			"/>
			<polygon style="fill:#5E3E3E;" points="459.129,603.371 461.346,600.437 565.81,675.482 563.442,677.614 			"/>
			<polygon style="fill:#9E7A7A;" points="458.163,447.999 451.881,444.371 451.881,736.356 458.163,739.984 			"/>
			<polygon style="fill:#9E7A7A;" points="463.198,446.74 456.917,443.112 456.917,735.097 463.198,738.727 			"/>
			<polygon style="fill:#9E7A7A;" points="257.514,333.101 251.227,329.472 251.227,621.458 257.514,625.085 			"/>
			<polygon style="fill:#9E7A7A;" points="360.059,266.596 250.924,329.605 457.648,449.119 566.782,386.107 			"/>
			<polygon style="fill:#BA9797;" points="361.336,271.945 261.687,329.477 456.589,443.871 556.23,383.653 			"/>
			<polygon style="fill:#F4D6AB;" points="417.304,698.594 417.518,646.426 420.05,700.921 			"/>
			<polygon style="fill:#F4D6AB;" points="413.719,592.992 413.507,645.16 410.972,590.666 			"/>
			<polygon style="fill:#F4D6AB;" points="347.188,557.083 346.976,609.253 344.44,554.759 			"/>
			<polygon style="fill:#F4D6AB;" points="391.544,427.821 391.329,479.991 388.794,425.499 			"/>
			<polygon style="fill:#F4D6AB;" points="359.227,561.309 359.01,602.071 356.48,558.986 			"/>
			<polygon style="fill:#F4D6AB;" points="351.619,657.198 352.673,618.967 355.207,659.099 			"/>
			<polygon style="fill:#F4D6AB;" points="380.132,543.567 380.979,471.543 383.721,545.467 			"/>
			<path style="fill:#83DDF2;" d="M293.938,488.085c-5.251-1.489-9.211-4.111-15.003-9.487l-0.298,7.778
				c5.797,5.396,9.494,7.797,15.01,9.488L293.938,488.085z"/>
			<path style="fill:#83DDF2;" d="M294.552,473.927c-5.254-1.491-9.213-4.106-15.009-9.484l-0.297,7.779
				c5.802,5.392,9.495,7.796,15.009,9.48L294.552,473.927z"/>
			<path style="fill:#83DDF2;" d="M295.16,459.772c-5.252-1.493-9.212-4.112-15.003-9.489l-0.297,7.778
				c5.797,5.397,9.495,7.802,15.004,9.486L295.16,459.772z"/>
			<path style="fill:#83DDF2;" d="M296.011,440.091c-5.252-1.49-9.212-4.109-15.009-9.485l-0.298,7.778
				c5.804,5.397,9.5,7.799,15.011,9.485L296.011,440.091z"/>
			<path style="fill:#83DDF2;" d="M299.922,394.46c-5.251-1.492-9.212-4.11-15.005-9.486l-0.297,7.777
				c5.799,5.398,9.501,7.8,15.011,9.484L299.922,394.46z"/>
			<polygon style="fill:#9E7A7A;" points="257.568,328.301 259.76,331.468 556.759,385.191 554.57,382.029 			"/>
			<polygon style="fill:#9E7A7A;" points="363.455,270.87 358.025,269.405 454.68,445.157 460.108,446.624 			"/>
		</g>
	</g>
	<g>
		<path style="opacity:0.3;fill:#340C00;" d="M442.491,314.064l-55.746-4.799c0.571,2.395,1.043,4.758,1.345,7.067
			c0.578,4.42,2.952,12.998,1.976,16.896c-0.132,0.522-0.34,0.931-0.596,1.276c-0.249,0.247-0.48,0.481-0.693,0.697
			c-1.648,1.223-4.358,1.189-6.352,3.302c0.092,0.072,0.183,0.142,0.273,0.214c-6.526,2.756-19.344,8.632-31.092,16.709
			c5.78-5.511,21.976-21.614,28.827-35.322c1.279-2.561,2.641-5.819,3.99-9.503l-21.837,12.572
			c-6.846,11.863-17.721,26.247-19.54,28.631c-0.953,0.348-0.645,1.984,0.368,3.512c-1.779,1.993-2.938,5.085-3.493,6.845
			c-2.243,2.371-4.813,5.353-4.16,5.955c0.174,0.16,0.443,0.165,0.775,0.058c-2.109,2.305-3.986,4.698-5.512,7.181
			c-11.641,18.95,7.85,79.996,7.85,79.996c0.243,0.164,0.47,0.282,0.705,0.426c-7.803,3.561-17.172,9.753-14.853,12.147
			c5.458,5.643,17.532-4.117,22.793-9.975c1.728-0.238,3.025-0.976,3.93-1.702c0.024-0.021,0.05-0.04,0.074-0.059
			c0.141-0.116,0.267-0.226,0.386-0.338c0.034-0.032,0.067-0.062,0.1-0.092c0.106-0.103,0.203-0.198,0.293-0.292
			c0.034-0.037,0.066-0.071,0.098-0.107c0.079-0.086,0.15-0.164,0.212-0.238c0.032-0.039,0.055-0.071,0.085-0.104
			c0.051-0.063,0.099-0.123,0.137-0.174c0.03-0.041,0.049-0.066,0.072-0.098c0.023-0.034,0.046-0.064,0.059-0.085
			c0.03-0.044,0.044-0.068,0.044-0.068s-16.436-59.447-7.124-69.777c0.178-0.197,0.382-0.408,0.593-0.621
			c6.506-6.529,27.792-19.037,41.208-22.422c-0.156-0.141-0.304-0.285-0.475-0.413c2.765-0.484,5.155-0.446,6.919,0.333
			c7.532,3.323-7.59,17.753-15.227,28.192l0.044,0.049l-0.058-0.032c-1.045,1.429-1.952,2.784-2.639,4.025
			c-10.748,19.459-2.114,84.953-2.114,84.953c0.787,0.406,1.522,0.715,2.232,0.979c-0.002,0-0.004,0.003-0.004,0.003
			c0.053,0.018,0.101,0.029,0.152,0.048c0.017,0.005,0.034,0.011,0.051,0.015c-5.139,7.087-10.719,18.236-7.284,19.074
			c7.16,1.722,12.289-10.699,14.175-18.621c1.099-0.343,1.98-0.86,2.668-1.421c0.007-0.003,0.013-0.008,0.019-0.016
			c0.191-0.154,0.367-0.31,0.529-0.467c0.01-0.009,0.022-0.021,0.032-0.028c0.156-0.155,0.299-0.302,0.425-0.448
			c0.014-0.013,0.025-0.027,0.038-0.039c0.123-0.144,0.236-0.278,0.333-0.406c0.012-0.016,0.021-0.027,0.034-0.043
			c0.093-0.125,0.179-0.24,0.25-0.348c0.012-0.015,0.019-0.028,0.03-0.046c0.065-0.098,0.124-0.186,0.166-0.262
			c0.016-0.02,0.02-0.031,0.031-0.053c0.076-0.13,0.125-0.224,0.125-0.224s-4.718-61.35,3.442-72.615
			c0.972-1.341,2.367-2.788,4.051-4.31c31.547-24.612,113.18-25.1,130.756-36.084C526.457,363.522,442.491,314.064,442.491,314.064z
			 M347.764,358.172c0.001-0.019,0.004-0.041,0.006-0.061c0.029-0.001,0.059-0.01,0.088-0.012
			C347.825,358.122,347.796,358.147,347.764,358.172z"/>
		<g>
			<g>
				<g>
					<g>
						<path style="fill:#E2D0C9;" d="M376.671,473.775c-5.123,4.675-15.14,23.277-10.673,24.214
							c8.474,1.762,13.536-15.922,14.162-22.727C380.788,468.463,376.671,473.775,376.671,473.775z"/>
						<path style="fill:#D1AEA3;" d="M378.189,484.247c1.093-3.451,1.768-6.785,1.97-8.985c0.629-6.799-3.488-1.487-3.488-1.487
							c-2.178,1.986-5.228,6.479-7.678,11.064L378.189,484.247z"/>
						<path style="fill:#E2D0C9;" d="M342.055,452.978c-6.731,1.361-24.815,12.197-21.565,15.348
							c6.154,5.973,19.63-6.675,23.701-12.233C348.27,450.54,342.055,452.978,342.055,452.978z"/>
						<path style="fill:#D1AEA3;" d="M337.851,462.834c2.714-2.409,5.022-4.944,6.339-6.741c4.08-5.553-2.136-3.115-2.136-3.115
							c-2.853,0.576-7.753,2.868-12.2,5.544L337.851,462.834z"/>
						<path style="fill:#3E4249;" d="M417.05,315.681c2.901-25.947-38.36,19.796-38.36,19.796s-41.584,17.034-54.8,40.13
							c-11.042,19.305,10.346,79.711,10.346,79.711c9.853,6.141,14.105-1.202,14.105-1.202s-18.287-58.905-9.302-69.52
							c6.516-7.71,37.063-28.838,47.499-24.621c8.681,3.51-11.491,22.305-16.862,32.777c-10.134,19.785,0.541,84.976,0.541,84.976
							c10.492,5.009,13.924-2.735,13.924-2.735s-7.303-63.022,0.501-74.533c7.802-11.506,45.033-29.385,45.289-39.444
							C430.491,339.527,427.339,312.387,417.05,315.681z"/>
						<path style="fill:#2C2F35;" d="M373.601,338.686c9.605,14.648,38.348,20.392,47.593,32.458c0,0,15.389-6.771,7.03-22.573
							l-46.564-13.762L373.601,338.686z"/>
						<g>
							<path style="fill:#2C2F35;" d="M380.1,360.258c-0.229-0.196-0.411-0.422-0.734-0.552
								c-10.436-4.218-40.978,16.913-47.5,24.619c-8.985,10.614,9.296,69.514,9.296,69.514s-1.195,2.045-3.771,3.071
								c7.609,2.95,10.951-2.793,10.951-2.793s-18.287-58.905-9.302-69.52C344.534,378.101,366.362,364.185,380.1,360.258z"/>
							<path style="fill:#2C2F35;" d="M417.05,315.681c0.915-8.158-3.144-9.681-9.134-7.943c1.642,1.191,2.423,3.608,1.966,7.669
								c10.29-3.292,13.434,23.851,12.881,45.342c-0.26,10.052-37.491,27.935-45.29,39.437c-7.808,11.513-0.503,74.536-0.503,74.536
								s-1.249,2.76-4.495,3.919c8.727,2.939,11.667-3.647,11.667-3.647s-6.632-61.175,1.171-72.69
								c7.802-11.506,44.363-31.228,44.619-41.287C430.491,339.527,427.339,312.387,417.05,315.681z"/>
						</g>
						<path style="fill:#BAAD5D;" d="M358.53,311.702c3.623-13.195,2.753-68.067,19.031-61.613
							c12.41,4.923,1.868,51.659-6.013,68.751c-7.884,17.09-29.746,38.235-29.746,38.235l-6.886-5.027
							C334.917,352.047,355.15,323.989,358.53,311.702z"/>
						<path style="fill:#9B8C45;" d="M363.926,318.804c7.543-16.358,17.505-59.832,7.478-67.86c1.731-1.398,3.754-1.806,6.158-0.856
							c12.41,4.923,1.868,51.659-6.013,68.751c-7.884,17.09-29.746,38.235-29.746,38.235l-4.44-3.239
							C343.716,347.286,357.904,331.866,363.926,318.804z"/>
						<path style="fill:#544A21;" d="M341.65,357.375c2.178-1.259-4.001-6.381-6.382-5.738
							C332.887,352.284,337.465,359.796,341.65,357.375z"/>
						<path style="fill:#BAAD5D;" d="M374.115,337.167c2.623-2.96,6.701-1.979,7.471-5.51c0.857-3.927-1.788-12.427-2.501-16.826
							c-3.91-24.065-25.642-53.391-3.432-67.941c25.749-16.866,58.568,13.109,56.396,23.1c2.727,12.332,1.305,26.576-0.265,42.317
							c-1.463,14.695,3.702,43.054-1.493,47.65C421.746,364.48,398.542,355.454,374.115,337.167z"/>
						<path style="fill:#9B8C45;" d="M419.463,340.207c0,0-8.283,2.363-15.633-0.554c7.986,4.661,14.777,11.149,14.777,11.149
							L419.463,340.207z"/>
						<path style="fill:#9B8C45;" d="M423.373,264.04c4.212-3.944,8.976,4.577,8.675,5.949c2.727,12.332,1.305,26.576-0.265,42.317
							c-1.463,14.695,3.702,43.054-1.493,47.65c-3.086,1.632-14.173,1.347-20.455-0.354
							C423.535,342.319,403.466,306.493,423.373,264.04z"/>
						<path style="fill:#FFB894;" d="M390.746,251.876c3.861-5.947,10.981-9.399,15.903-7.715c4.926,1.683,5.783,7.867,1.923,13.809
							c-3.863,5.945-10.984,9.397-15.903,7.714C387.742,264.004,386.884,257.816,390.746,251.876z"/>
						<path style="fill:#FFB894;" d="M409.664,248.607l0.017-12.168l-11.848,3.62l-8.438,15.321
							C389.395,255.38,394.822,266.687,409.664,248.607z"/>
						<path style="opacity:0.3;fill:#892700;" d="M388.469,254.637c0.945,7.163,14.221,10.947,29.662,8.459
							c3.674-0.593,7.133-1.495,10.268-2.613c-0.073-0.095-0.141-0.195-0.214-0.293c-0.247-0.34-0.494-0.671-0.759-1
							c-0.739-0.943-1.534-1.849-2.371-2.747c-0.27-0.287-0.531-0.58-0.809-0.864c-0.91-0.917-1.875-1.791-2.878-2.643
							c-0.271-0.232-0.523-0.471-0.797-0.695c-1.188-0.959-2.428-1.86-3.725-2.698c-0.935-0.611-1.921-1.133-2.913-1.677
							c-0.431-0.233-0.851-0.497-1.29-0.717c-0.973-0.486-1.973-0.895-2.981-1.305l0.014-7.647
							C396.807,241.409,387.637,248.276,388.469,254.637z"/>
						<g>
							<path style="fill:#6D3C23;" d="M383.627,240.871c-7.106-23.824,15.505-36.914,2.321-40.677c0,0-25.744,4.394-3.948,40.745
								C383.585,241.028,381.261,244.398,383.627,240.871z"/>
							<path style="fill:#F9A580;" d="M411.097,231.337c-0.458-14.66-4.47-26.918-12.487-30.824
								c-8.001-3.905-24.295,2.038-24.157,22.001c0.026,4.021,0.047,6.433,1.01,10.145c0.233,0.929,2.768,2.754,3.346,3.779
								c0.7,1.225-0.427,4.307-0.122,5.061c4.074,10.073,9.749,15.151,15.008,15.701c4.096,0.424,12.397-9.514,12.274-13.005
								C405.325,226.659,411.256,236.563,411.097,231.337z"/>
							<path style="fill:#FFB894;" d="M396.456,234.288c3.097-17.938-12.727-28.964-3.556-34.89
								c-8.243,0.211-18.559,7.217-18.446,23.117c0.026,4.021,0.047,6.433,1.01,10.145c0.233,0.929,2.768,2.754,3.346,3.779
								c0.7,1.225-0.086,3.941-0.063,4.773c0.062,2.024,4.516,11.021,6.216,12.793c2.543,2.646,8.71,4.057,9.748,2.949
								C400.651,250.59,394.334,246.603,396.456,234.288z"/>
							<path style="fill:#5B2E1A;" d="M378.687,241.5c0,0,2.264,6.572,2.211,7.745c0,0,1.47,1.812,2.154,4.434
								c0.687,2.624,6.936,6.536,11.862,4.032c4.928-2.503,9.627-7.772,10.194-10.186c0.568-2.418-2.684-7.428-1.639-9.855
								l-1.621-0.421c0,0-2.608,5.616-4.004,6.936C396.448,245.502,382.962,245.695,378.687,241.5z"/>
							<path style="fill:#5B2E1A;" d="M401.579,238.833c-0.46-11.63-5.471-22.619-8.107-26.295
								c-3.676-5.142,3.212-7.983,13.617-13.716c0,0,15.327,8.064,2.269,41.715C407.602,237.805,405.298,236.734,401.579,238.833z"
								/>
							<path style="fill:#6D3C23;" d="M392.735,215.072c-5.506,5.303-19.948,10.533-18.629,2.026
								c0.984-6.352-0.657-14.352,16.739-20.827c12.272-4.568,22.447,3.86,21.404,12.324
								C411.193,217.054,400.052,208.03,392.735,215.072z"/>
							<g>
								<path style="fill:#6D3C23;" d="M379.329,231.865c-3.373-0.198-4.088,0.212-4.088,0.212l0.339,0.997l4.191,0.515
									L379.329,231.865z"/>
								<path style="fill:#6D3C23;" d="M383.65,232.04l0.506,1.958l9.293,0.964l0.252-1.317
									C389.068,232.643,385.87,232.201,383.65,232.04z"/>
							</g>
							<path style="fill:#F9A580;" d="M403.219,234.081c0.857,2.931-1.423,5.006,1.69,5.973c3.605,1.118,6.869-7.324,2.85-9.561
								C404.671,228.772,402.477,231.551,403.219,234.081z"/>
							<path style="fill:#8C6B5A;" d="M386.475,235.936l3.662,0.585C390.137,236.521,390.27,241.874,386.475,235.936z"/>
							<path style="fill:#8C6B5A;" d="M378.902,235.306l2.436,0.237C381.338,235.542,381.808,240.929,378.902,235.306z"/>
							<path style="fill:#FFB894;" d="M381.999,232.492c0,0-1.567,8.026-1.714,12.544c0.386,0.247,1.354,0.686,1.892,0.613
								c1.731-0.216,3.396-1.244,4.071-2.198L381.999,232.492z"/>
							<path style="fill:#FFCAB3;" d="M381.529,245.007c-0.216-3.952,0.382-10.372,0.568-12.275l-0.098-0.239
								c0,0-1.567,8.026-1.714,12.544c0.386,0.247,1.354,0.686,1.892,0.613c0.289-0.034,0.55-0.097,0.824-0.167
								C382.452,245.405,381.835,245.169,381.529,245.007z"/>
						</g>
						<path style="fill:#FFB894;" d="M332.027,363.501c0,0,1.669-8.004,5.549-9.903c3.881-1.903,2.236,6.27,2.236,6.27
							L332.027,363.501z"/>
						<path style="fill:#FFB894;" d="M337.442,367.974c-1.555-0.078-0.534-9.296-0.534-9.296l3.16-2.276
							C340.068,356.401,339.344,368.07,337.442,367.974z"/>
						<path style="fill:#FFB894;" d="M328.399,368.222c-1.146-0.992,6.885-9.222,6.885-9.222l1.289,2.197
							C336.573,361.197,329.796,369.432,328.399,368.222z"/>
						<path style="fill:#FFB894;" d="M383.068,384.058l4.938,4.81c0,0,6.587-3.466,8.037-7.763
							C397.533,376.685,391.092,374.202,383.068,384.058z"/>
						<path style="fill:#FFB894;" d="M385.303,393.443c-0.911-0.755,2.83-7.532,2.83-7.532l2.144,0.903
							C390.276,386.815,386.457,394.4,385.303,393.443z"/>
						<path style="fill:#FFB894;" d="M382.557,391.527c-0.781-0.989,3.578-6.636,3.578-6.636l1.935,1.463
							C388.07,386.354,383.555,392.775,382.557,391.527z"/>
						<path style="fill:#FFB894;" d="M379.603,389.816c-0.633-1.384,5.222-7.774,5.222-7.774l2.452,1.868
							C387.278,383.909,380.408,391.553,379.603,389.816z"/>
						<path style="fill:#FFB894;" d="M380.77,379.978c0.069-0.828,3.427-0.703,5.618-1.621c1.876-0.788,3.836-0.452,3.836-0.45
							l1.194,2.869c0,0-2.503-0.603-4.41-0.058C384.284,381.486,380.678,381.12,380.77,379.978z"/>
						<path style="fill:#FFB894;" d="M375.068,229.863c-3.161-6.155-3.388-23.446,17.982-16.642
							c4.356,1.385,3.756,17.647,3.756,17.647L375.068,229.863z"/>
						<path style="fill:#6D3C23;" d="M394.334,213.629c-7.642-0.509-19.655,4.709-23.494,14.456c0,0-0.816-8.582,4.435-16.918
							C380.527,202.835,394.334,213.629,394.334,213.629z"/>
						<path style="fill:#6D3C23;" d="M399.851,211.888c-7.67,0.518-18.939,7.269-21.472,17.404c0,0-1.946-8.368,2.183-17.297
							C384.69,203.071,399.851,211.888,399.851,211.888z"/>
						<path style="fill:#6D3C23;" d="M393.249,211.787c-7.536-1.268-19.968,2.748-24.732,12.096c0,0,0.031-8.648,6.06-16.447
							C380.605,199.643,393.249,211.787,393.249,211.787z"/>
						<path style="fill:#6D3C23;" d="M396.127,211.426c-6.357-4.153-19.213-5.314-27.189,1.508
							C366.726,214.827,389.769,185.143,396.127,211.426z"/>
						<path style="fill:#BAAD5D;" d="M418.457,329.166c1.381-14.413-8.66-72.039,8.525-67.624
							c13.098,3.363,13.566,55.383,8.629,74.521c-4.937,19.14-39.974,46.439-39.974,46.439l-4.923-4.742
							C390.714,377.76,417.175,342.597,418.457,329.166z"/>
						<path style="fill:#9B8C45;" d="M391.203,377.103l2.158,2.076c0,0,35.038-27.299,39.975-46.439
							c4.108-15.951,4.466-54.719-3.116-69.144c9.901,10.446,9.885,55.056,5.391,72.468c-4.937,19.14-39.974,46.439-39.974,46.439
							l-4.923-4.742C390.714,377.76,390.901,377.515,391.203,377.103z"/>
						<polygon style="fill:#DBCA77;" points="385.532,290.004 385.457,294.118 379.52,295.69 375.801,290.752 374.754,284.36 						
							"/>
					</g>
					<path style="fill:#FFE2D7;" d="M389.991,248.148l-7.303-0.835C382.688,247.313,387.356,250.968,389.991,248.148z"/>
					<polygon style="fill:#6F757F;" points="387.632,348.102 393.695,351.159 391.917,353.403 385.858,350.351 					"/>
				</g>
			</g>
		</g>
	</g>
	<g>
		<g>
			<path style="fill:#6D3C23;" d="M181.316,479.839c-0.566-0.971-6.976-11.348-10.68-14.211c0,0,6.918,1.364,11.057,6.57
				C185.836,477.399,181.316,479.839,181.316,479.839z"/>
			<path style="fill:#6D3C23;" d="M168.397,476.904c-1.032-0.446-12.346-5.011-17.026-5.112c0,0,6.379-3.008,12.798-1.27
				C170.587,472.258,168.397,476.904,168.397,476.904z"/>
			<path style="fill:#6D3C23;" d="M176.681,476.936c-0.929-0.631-11.188-7.234-15.766-8.216c0,0,6.831-1.755,12.81,1.155
				C179.706,472.783,176.681,476.936,176.681,476.936z"/>
			<polygon style="fill:#AA9083;" points="208.612,551.88 155.248,525.376 153.658,520.85 221.575,503.747 222.487,506.336 			"/>
			<polygon style="fill:#DBC8BF;" points="207.842,550.048 153.41,520.668 167.389,474.499 221.826,503.883 			"/>
			<polygon style="fill:#C9B0A6;" points="207.842,550.048 153.41,520.668 221.826,503.883 			"/>
			<polygon style="fill:#9BC4C2;" points="204.411,543.566 159.332,519.22 172.645,482.547 217.723,506.897 			"/>
			<path style="fill:#73A09D;" d="M170.471,525.076c0,0,7.116-8.679,17.704-7.114c10.59,1.56,11.629,0,11.629,0l2.604-3.646
				c0,0,0.348-12.5,2.433-14.583l12.883,7.164l-13.312,36.669L170.471,525.076z"/>
			<path style="fill:#5E311D;" d="M180.111,502.293c0,0,2.356,3.362,3.24,3.742c1.416,0.605,2.73-1.319,2.932-1.821
				c-0.202,2.122-0.912,4.045-3.235,3.838C181.315,507.903,178.293,506.943,180.111,502.293z"/>
			<path style="fill:#FFB894;" d="M211.236,543.496c0,0-1.383-3.443-1.62-5.94c-0.335-3.576-3.235-6.809-1.821-7.818
				c1.417-1.012,3.845,5.598,4.655,4.985c0.806-0.605,2.225-5.797,3.643-5.797C215.959,539.718,214.339,542.685,211.236,543.496z"/>
			<polygon style="fill:#D8CFA9;" points="206.92,545.786 208.537,541.336 215.415,540.725 214.605,548.01 			"/>
			<path style="fill:#49463A;" d="M196.193,562.577l9.107-19.017l12.946,3.438c0,0-9.914,35.003-14.163,36.418
				C199.836,584.831,196.193,562.577,196.193,562.577z"/>
			<path style="fill:#3A372C;" d="M196.193,562.577l9.107-19.017l12.946,3.438c0,0-9.914,35.003-14.163,36.418
				C199.836,584.831,196.193,562.577,196.193,562.577z"/>
			<path style="fill:#FFB894;" d="M179.803,474.943c0,0,6.307,10.768,5.136,17.46c-1.167,6.694-2.07,19.508-5.783,22.566
				c-6.924,6.515-19.222-6.909-19.222-6.909S152.446,460.253,179.803,474.943z"/>
			<g>
				<path style="fill:#F9A580;" d="M171.346,472.18c-12.883-0.788-12.866,19.764-12.054,30.106
					C159.528,496.305,161.104,477.037,171.346,472.18z"/>
				<path style="fill:#F9A580;" d="M159.471,504.249c0.233,2.335,0.463,3.811,0.463,3.811s11.896,12.956,18.871,7.168
					C171.052,513.537,161.064,505.551,159.471,504.249z"/>
			</g>
			<path style="fill:#E0D6A9;" d="M151.118,759.26c0,0,15.892-15.884,21.589-15.475c5.693,0.42-0.899,7.963-3.753,9.944
				c-2.856,1.977-13.019,7.361-13.019,7.361L151.118,759.26z"/>
			<path style="fill:#B7AD84;" d="M155.935,761.091c0,0,2.243-1.189,4.91-2.656c-1.425-1.289-3.844-2.089-6.642-2.136
				c-1.871,1.744-3.085,2.961-3.085,2.961L155.935,761.091z"/>
			<path style="fill:#E0D6A9;" d="M184.535,777.273c0,0,21.151-7.023,28.549-3.691c3.192,1.435,1.088,5.98-1.171,6.269
				c-11.075,1.479-24.29,0.639-24.29,0.639L184.535,777.273z"/>
			<path style="fill:#B7AD84;" d="M184.535,777.273c0,0,2.432-0.804,5.935-1.744c1.161,0.895,2.292,1.897,3.305,2.993
				c0.713,0.763,1.307,1.504,1.778,2.201c-4.653-0.023-7.931-0.233-7.931-0.233L184.535,777.273z"/>
			<path style="fill:#B24D40;" d="M139.942,610.184c2.097,42.368,7.755,138.643,7.353,147.788c0,0,3.516,6.675,10.786,5.071
				c0,0-5.742-122.293,8.643-115.564c4.574,7.379,15.74,116.878,15.49,131.298c4.088,2.924,8.161,1.858,10.487,1.598
				c1.137-15.008,3.93-128.537,2.706-150.158C193.997,596.489,146.021,600.386,139.942,610.184z"/>
			<g>
				<path style="fill:#992E25;" d="M165.338,647.242c-0.47-0.411-0.948-0.741-1.444-0.978
					c-14.388-6.727-8.646,115.565-8.646,115.565c-1.622,0.358-3.042,0.29-4.297-0.012c1.745,1.122,4.107,1.899,7.13,1.226
					C158.081,763.043,161.545,656.433,165.338,647.242z"/>
				<path style="fill:#992E25;" d="M195.407,630.217c-0.581-13.876-8.633-21.641-18.335-25.306
					c8.388,4.057,6.394,13.747,6.916,26.247c1.226,21.625,7.019,132.993,5.884,148.003c-1.645,0.183-4.17,0.744-6.951,0.038
					c3.845,2.338,7.591,1.422,9.779,1.176C193.837,765.367,196.631,651.838,195.407,630.217z"/>
			</g>
			<path style="fill:#992E25;" d="M195.407,630.217c-0.102-2.344-0.433-4.497-0.926-6.503c-4.554-2.813-10.033-5.396-16.122-7.437
				c-16.398-5.492-31.688-5.277-37.036,0.035c-0.305,2.893-0.54,5.965-0.724,9.193c2.745,5.149,9.759,10.745,19.156,15.185
				l3.87-11.959l1.269,14.166c1.32,0.518,2.656,1.033,4.043,1.496c10.017,3.355,19.594,4.558,26.771,3.798
				C195.703,640.195,195.617,633.871,195.407,630.217z"/>
			<path style="fill:#49463A;" d="M194.235,583.821c0.279-19.506,0.212-30.052-1.433-39.936
				c-2.875-17.254-39.531-32.964-55.21-23.184c-10.798,6.731,0.488,45.092,1.236,51.834c0.445,3.977-2.262,39.392-3.931,47.967
				c-0.913,4.706,8.284,11.818,21.036,16.086l3.779-15.545l1.648,17.127c13.354,3.331,28.348,5.462,37.467-6.334
				C203.413,625.901,193.927,606.085,194.235,583.821z"/>
			<path style="fill:#3A372C;" d="M194.235,583.821c0.279-19.506,0.212-30.052-1.433-39.936c-0.823-4.934-4.414-9.737-9.482-13.861
				c0.667,1.853,1.151,3.725,1.386,5.622c1.648,13.17,1.715,27.211,1.438,53.2c-0.2,19.146,3.666,36.898,5.208,49.229
				c2.758-1.4,5.288-3.412,7.474-6.238C203.413,625.901,193.927,606.085,194.235,583.821z"/>
			<path style="fill:#49463A;" d="M204.083,583.416c10.043-6.072-4.042-44.916-17.8-51.387
				C172.526,525.554,186.688,593.935,204.083,583.416z"/>
			<path style="fill:#3A372C;" d="M196.157,541.762c6.122,12.967,9.208,31.846,6.493,42.324c0.479-0.175,1.009-0.305,1.434-0.67
				C212.785,575.931,205.52,555.679,196.157,541.762z"/>
			<path style="fill:#F9A580;" d="M157.955,507.739c-0.016,0.659-0.777,12.021-0.777,12.021l16.128,4.683l0.754-15.886
				L157.955,507.739z"/>
			<path style="fill:#6D3C23;" d="M180.628,496.618c-2.478-17.07-14.413-23.243-22.729-23.44
				c-8.318-0.198-12.157,11.922-11.427,19.989c0.875,9.738,5.889,15.277,12.701,20.047
				C167.65,519.158,182.585,510.089,180.628,496.618z"/>
			<path style="fill:#5E311D;" d="M182.305,499.525c-0.484-9.699-6.025-16.394-9.949-20.113c-2.679,5.128-4.278,11.454-4.278,18.325
				c0,5.835,1.159,11.272,3.145,15.927c4.495-2.088,7.213-6.946,8.72-12.254C180.384,499.855,182.396,501.351,182.305,499.525z"/>
			<path style="fill:#FFB894;" d="M178.841,506.946c-2.747,2.144-6.981-8.407-2.993-10.109
				C179.83,495.132,183.776,503.117,178.841,506.946z"/>
			<path style="fill:#6D3C23;" d="M183.323,475.472c-12.523-8.111-21.529-4.925-25.997-2.821
				c-9.087,4.276-10.031,10.17-9.862,15.903c0.17,5.724,16.361,4.37,26.404,4.363C183.144,492.915,188.983,479.138,183.323,475.472z
				"/>
			<path style="fill:#5E311D;" d="M183.323,475.472c-0.712-0.463-1.406-0.876-2.096-1.27c-6.496,2.377-11.488,9.684-12.671,18.792
				c1.869-0.032,3.677-0.076,5.314-0.076C183.144,492.915,188.983,479.138,183.323,475.472z"/>
			<polygon style="fill:#D8CFA9;" points="151.279,518.476 153.304,514.223 177.179,521.305 179.001,526.975 			"/>
			<polygon style="fill:#5E311D;" points="184.531,493.457 185.473,495.208 184.189,496.827 			"/>
			<path style="fill:#3A372C;" d="M158.838,531.227c0,0-5.011,22.486-1.022,37.671c3.995,15.188,0.717,35.918,0.717,35.918
				s4.461-19.679,1.041-33.374C154.73,552.069,158.838,531.227,158.838,531.227z"/>
			<path style="fill:#6D3C23;" d="M169.666,481.486c0,1.127,0.323,13.321,2.086,17.656c0,0-5.295-4.655-6.256-11.235
				C164.53,481.326,169.666,481.486,169.666,481.486z"/>
			<path style="fill:#6D3C23;" d="M167.351,489.444c0.11,1.12,1.626,13.229,3.81,17.364c0,0-5.73-4.112-7.333-10.566
				C162.226,489.79,167.351,489.444,167.351,489.444z"/>
			<path style="fill:#6D3C23;" d="M170.238,475.163c0.112,1.117,1.628,13.223,3.811,17.362c0,0-5.727-4.11-7.334-10.562
				C165.111,475.51,170.238,475.163,170.238,475.163z"/>
			<path style="fill:#726E5D;" d="M182.826,563.021c-3.209-6.904-3.527-26.803,3.211-29.694
				C178.974,532.523,176.247,550.339,182.826,563.021z"/>
			<path style="fill:#726E5D;" d="M134.439,547.286c-2.471-6.845-0.724-25.63,6.277-27.622
				C133.778,518.148,129.217,534.632,134.439,547.286z"/>
			<path style="fill:#6B6755;" d="M182.587,614.453l12.279-6.981c0,0,1.201,6.018-4.576,9.151
				C184.037,620.008,182.587,614.453,182.587,614.453z"/>
		</g>
	</g>
	<g>
		<path style="fill:#F4BC7D;" d="M520.25,642.898c0.262-2.554,0.348-7.973-2.553-10.478c-4.734-4.092-7.413-7.541-8.05-5.752
			c-0.347,0.966,4.43,5.333,3.194,7.279c-1.795,2.816-4.093,8.439,3.063,12.784C521.371,650.049,520.25,642.898,520.25,642.898z"/>
		<g>
			<path style="fill:#F4BC7D;" d="M550.521,573.033c0,0-5.753,10.951-4.296,17.519c1.455,6.575-3.418,17.654,3.758,23.424
				c7.148,6.146,21.697-9.066,21.697-9.066S576.921,557.269,550.521,573.033z"/>
			<g>
				<path style="fill:#F9A580;" d="M558.758,569.919c12.716-1.359,13.628,18.979,13.291,29.251
					C571.551,593.268,569.119,574.267,558.758,569.919z"/>
				<path style="fill:#F9A580;" d="M571.965,601.12c-0.119,2.326-0.285,3.791-0.285,3.791s-14.18,14.725-21.336,9.32
					C557.935,612.202,570.448,602.479,571.965,601.12z"/>
				<path style="fill:#5E311D;" d="M545.96,610.415c0.078-0.42,2.92-11.089,3.566-14.92l1.691-0.312c0,0,4.333,13.649,9.733,15.109
					c5.404,1.467,0.135,7.496-6.238,7.186C548.345,617.16,544.929,616.094,545.96,610.415z"/>
			</g>
			<path style="fill:#F4BC7D;" d="M573.454,604.517c0.05,0.657,1.315,11.856,1.315,11.856l-15.849,5.37l-1.472-15.682
				L573.454,604.517z"/>
			<path style="fill:#6D3C23;" d="M550.686,594.526c1.679-17.002,13.201-23.654,21.432-24.229
				c8.215-0.567,12.562,11.255,12.207,19.267c-0.438,9.679-5.135,15.387-11.66,20.416
				C564.547,616.243,549.357,607.951,550.686,594.526z"/>
			<path style="fill:#5E311D;" d="M549.154,597.479c0.04-9.625,5.221-16.495,8.933-20.354c2.888,4.961,4.758,11.145,5.066,17.941
				c0.265,5.774-0.643,11.212-2.394,15.907c-4.54-1.868-8.387-2.816-10.113-8.003C550.135,601.451,549.148,599.292,549.154,597.479z
				"/>
			<path style="fill:#F4BC7D;" d="M550.765,603.457c-2.694,0.121-1.078-10.304,2.25-9.388
				C556.348,594.969,555.614,603.271,550.765,603.457z"/>
			<path style="fill:#6D3C23;" d="M547.058,573.727c12.025-8.599,21.079-5.846,25.597-3.965c9.185,3.82,10.388,9.608,10.483,15.282
				c0.094,5.678-15.994,5.07-25.928,5.519C548.023,590.973,541.627,577.609,547.058,573.727z"/>
			<path style="fill:#5E311D;" d="M547.058,573.727c0.69-0.49,1.351-0.936,2.019-1.352c6.534,2.056,11.808,9.058,13.379,18.016
				c-1.839,0.055-3.634,0.098-5.245,0.172C548.023,590.973,541.627,577.609,547.058,573.727z"/>
			<path style="fill:#5E311D;" d="M559.06,584.688c0,0,9.621,10.023,12.983,8.259c0,0-6.212,9.235-12.37,2.973
				C553.522,589.656,559.06,584.688,559.06,584.688z"/>
			<path style="fill:#5E311D;" d="M560.954,589.133c0,0,6.204,12.427,9.941,11.745c0,0-8.673,6.976-12.688-0.836
				C554.191,592.237,560.954,589.133,560.954,589.133z"/>
			<path style="fill:#5E311D;" d="M558.57,601.081c0,0,16.949,5.935,19.605,3.223c0,0-5.226,10.488-16.302,8.032
				C553.302,610.427,558.57,601.081,558.57,601.081z"/>
		</g>
		<path style="fill:#E5D6A3;" d="M626.566,833.992c-5.757-2.78-17.558-8.151-16.564-12.247c0.931-3.817,18.625,3.542,18.625,3.542
			L626.566,833.992z"/>
		<path style="fill:#E5D6A3;" d="M594.218,847.776c-6.778-2.538-21.129-7.609-20.73-11.837c0.401-4.226,23.119,3.38,23.119,3.38
			L594.218,847.776z"/>
		<path style="fill:#5E6D6B;" d="M633.569,829.32c-0.975,4.052-9.17,10.003-13.521-1.335c-4.342-11.339-2.409-88.049-12.548-112.732
			l25.588-7.339C633.089,707.914,634.057,827.322,633.569,829.32z"/>
		<path style="fill:#43514E;" d="M633.089,707.914c0,0,0.631,69.872,0.645,102.07c-3.645,4.791-10.513,4.052-15.913,4.216
			c-2.256-25.146-1.931-78.515-10.319-98.947L633.089,707.914z"/>
		<path style="fill:#5E6D6B;" d="M600.609,844.213c-1.607,4.054-8.007,7.787-13.566-0.883c-6.752-10.533,5.559-84.936-6.89-109.625
			l27.791-8.223C607.944,725.482,601.402,842.22,600.609,844.213z"/>
		<path style="fill:#43514E;" d="M580.153,733.705l27.791-8.223c0,0-3.538,63.213-5.73,97.399c-4.479,1.442-9.37,2.241-14.486,2.241
			c-0.964,0-1.909-0.034-2.856-0.09C584.923,798.469,589.464,752.181,580.153,733.705z"/>
		<polygon style="fill:#B29756;" points="577.634,615.036 574.818,611.204 557.185,617.337 556.671,623.984 		"/>
		<path style="fill:#CFE5E5;" d="M639.375,795.068c-0.099,7.018-14.924,7.688-27.043,15.07c-14.352,8.74-33.366,4.587-40.595-3.482
			c-5.416-6.048,6.773-49.798-2.477-96.957c-3.083-15.729-8.866-29.997-17.75-46.744c-6.158-11.615-8.185-29.127-0.731-37.864
			c7.457-8.742,37.719-17.576,50.032-6.182c8.202,7.587,9.851,19.534,19.373,40.182c6.805,14.727,19.625,37.681,20.06,46.353
			C641.286,726.282,639.521,784.992,639.375,795.068z"/>
		<path style="fill:#B2D6D5;" d="M583.908,707.116c9.826,47.682-0.452,92.294,1.504,106.838c-5.774-1.379-10.713-3.995-13.675-7.298
			c-5.416-6.048,6.773-49.798-2.477-96.957c-3.083-15.729-8.866-29.997-17.75-46.744c-5.695-10.744-7.842-26.516-2.234-35.741
			C560.356,647.607,580.352,689.883,583.908,707.116z"/>
		<path style="fill:#B2D6D5;" d="M514.322,648.944c2.706-6.608,6.527-10.626,9.497-8.146c2.97,2.477,20.542,29.064,19.054,31.999
			c-1.487,2.936,4.086,10.736-3.126,13.644C535.034,688.34,511.62,655.556,514.322,648.944z"/>
		<path style="fill:#CFE5E5;" d="M540.576,686.367c-4.075,1.52-7.39-7.714-6.688-13.005c0.695-5.284,12.306-49.845,18.916-48.97
			c6.615,0.872,10.654,21.255,9.554,24.473C561.256,652.086,545.887,684.37,540.576,686.367z"/>
		<path style="fill:#B2D6D5;" d="M533.888,673.362c0.56-4.263,8.217-34.041,14.63-44.968c-5.01,14.937-9.166,41.022-9.335,45.162
			c-0.136,3.413,1.36,8.158,3.482,11.114c-0.799,0.868-1.502,1.471-2.088,1.696C536.501,687.887,533.186,678.653,533.888,673.362z"
			/>
		<path style="fill:#B2D6D5;" d="M610.602,685.835c-7.415-12.271-13.545-22.493-15.845-29.651
			c-2.305-7.153-12.021-29.649-12.021-29.649L610.602,685.835z"/>
		<path style="fill:#CFE5E5;" d="M585.991,722.151l-11.096-0.204c0,0,0.211,3.896,2.056,4.518c1.846,0.612,6.982,0.204,8.009-0.826
			C585.991,724.618,585.991,722.151,585.991,722.151z"/>
		<path style="fill:#BFDDDC;" d="M627.215,734.262c4.162-1.381-2.036,45.57-5.237,71.276c-3.196,1.231-6.514,2.685-9.646,4.601
			c-0.25,0.144-0.51,0.265-0.757,0.404C614.791,789.707,623.498,735.504,627.215,734.262z"/>
	</g>
</g>
</svg>
